# xmcd CD database file
#
# Track frame offsets:
#	150
#	52889
#	65874
#	81720
#	96094
#	110753
#	121568
#	144826
#	157361
#	174499
#	195252
#	210413
#	225419
#	243408
#	260824
#	282820
#	299753
#
# Disc length: 4468 seconds
#
# Revision: 2
# Processed by: cddbd v1.5.2PL0 Copyright (c) Steve Scherf et al.
# Submitted via: CDex 1.70beta2
#
DISCID=fd117211
DTITLE=The meters - Funky Miracle CD2
DYEAR=2008
DGENRE=Jazz
TTITLE0=It ain't no use
TTITLE1=Hand clapping song
TTITLE2=Out in the country
TTITLE3=Loving you is on my mind 
TTITLE4=Ride your pony 
TTITLE5=Tippi-toes
TTITLE6=People say
TTITLE7=Same old thing
TTITLE8=Love is for me
TTITLE9=Just kissed my baby
TTITLE10=What 'cha say
TTITLE11=Jungle man
TTITLE12=Hey pocky-a-way
TTITLE13=Africa
TTITLE14=Love slip upon ya
TTITLE15=Can you do without ?
TTITLE16=Middle of the road
EXTD=YEAR: 2008
EXTT0=
EXTT1=
EXTT2=
EXTT3=
EXTT4=
EXTT5=
EXTT6=
EXTT7=
EXTT8=
EXTT9=
EXTT10=
EXTT11=
EXTT12=
EXTT13=
EXTT14=
EXTT15=
EXTT16=
PLAYORDER=
